<svg xmlns="http://www.w3.org/2000/svg" viewBox="0 0 50 50"><defs><style>.cls-1{fill:none}.cls-2{stroke:none}</style></defs><g id="Group_363" data-name="Group 363" transform="translate(-864 -1231)"><g id="Path_296" data-name="Path 296" class="cls-1"><path class="cls-2" d="M25 0A25 25 0 1 1 0 25 25 25 0 0 1 25 0z" transform="translate(864 1231)"/><path d="M25 1.5A23.423 23.423 0 0 0 8.383 8.383 23.423 23.423 0 0 0 1.5 25a23.423 23.423 0 0 0 6.883 16.617A23.424 23.424 0 0 0 25 48.5a23.424 23.424 0 0 0 16.617-6.883A23.424 23.424 0 0 0 48.5 25a23.424 23.424 0 0 0-6.883-16.617A23.423 23.423 0 0 0 25 1.5M25 0c13.807 0 25 11.193 25 25S38.807 50 25 50 0 38.807 0 25 11.193 0 25 0z" fill="#b8252a" transform="translate(864 1231)"/></g><g id="Path_595" data-name="Path 595" class="cls-1"><path class="cls-2" d="M12.269 0l2.9 8.913h9.367l-7.576 5.5 2.9 8.913-7.582-5.5-7.582 5.5 2.9-8.913L0 8.913h9.373z" transform="translate(877.084 1243.242)"/><path d="M12.269 3.237l-1.945 5.985-.224.691H3.08l5.09 3.696.588.427-.225.69-1.945 5.99 5.093-3.698.588-.427.587.427 5.094 3.697-1.946-5.988-.224-.691.587-.427 5.087-3.696h-7.016l-.225-.69-1.944-5.986m0-3.237l2.895 8.913h9.367l-7.576 5.505 2.896 8.913-7.582-5.504-7.582 5.504 2.895-8.913L0 8.913h9.373L12.27 0z" fill="#c4161c" transform="translate(877.084 1243.242)"/></g></g></svg>