<svg xmlns="http://www.w3.org/2000/svg" viewBox="0 0 82.729 82.729"><defs><style>.cls-1{fill:#d50a0a}</style></defs><g id="play-button-2"><path id="Path_636" data-name="Path 636" class="cls-1" d="M78.151 22.432A41.731 41.731 0 0 0 65.935 8.085a1.684 1.684 0 1 0-2 2.707 38.35 38.35 0 0 1 11.224 13.183 37.579 37.579 0 0 1 4.2 17.39 38 38 0 1 1-38-38 1.684 1.684 0 1 0 0-3.367 41.341 41.341 0 1 0 36.792 22.434z"/><path id="Path_637" data-name="Path 637" class="cls-1" d="M107.516 78.4a1.684 1.684 0 0 0-.852 1.464v36.946a1.684 1.684 0 1 0 3.367 0V82.83l24.925 14.838-18.329 11.809a1.684 1.684 0 1 0 1.824 2.83l20.613-13.281a1.684 1.684 0 0 0-.051-2.862l-29.804-17.742a1.684 1.684 0 0 0-1.693-.022z" transform="translate(-76.735 -56.247)"/></g></svg>